<svg id="Layer_1" enable-background="new 0 0 509.589 509.589" height="512" viewBox="0 0 509.589 509.589" width="512" xmlns="http://www.w3.org/2000/svg"><g><path d="m492.953 22.493c-13.872-13.871-35.829-21.625-63.496-22.424-25.337-.726-55.568 4.338-87.396 14.661-70.539 22.875-141.788 67.876-200.622 126.71s-103.834 130.082-126.709 200.621c-10.322 31.828-15.392 62.049-14.661 87.396.799 27.667 8.553 49.624 22.424 63.495 11.071 11.071 25.172 16.637 42.068 16.637 5.509 0 11.317-.592 17.411-1.778 20.383-3.965 43.758-14.447 71.461-32.044 46.226-29.364 104.725-79.313 173.873-148.461 69.148-69.147 119.097-127.647 148.461-173.873 17.597-27.703 28.079-51.078 32.044-71.461 4.822-24.787-.177-44.798-14.858-59.479z" fill="#efc074"/><g fill="#b76d43"><path d="m249.679 155.367c2.915 2.916 6.735 4.373 10.556 4.373 3.82 0 7.641-1.458 10.556-4.373 5.831-5.83 5.831-15.283 0-21.112l-55.16-55.161c-8.192 5.748-16.273 11.754-24.22 18.005z"/><path d="m131.027 152.139 54.475 54.475c2.915 2.915 6.735 4.373 10.556 4.373s7.641-1.458 10.556-4.373c5.831-5.83 5.831-15.283 0-21.112l-54.475-54.475c-3.608 3.421-7.178 6.891-10.7 10.413s-6.991 7.09-10.412 10.699z"/><path d="m97.099 191.411c-6.251 7.947-12.257 16.028-18.005 24.22l55.161 55.16c2.915 2.915 6.735 4.373 10.556 4.373s7.641-1.458 10.556-4.373c5.831-5.83 5.831-15.283 0-21.112z"/></g><path d="m507.811 81.972c4.822-24.787-.178-44.798-14.859-59.479-7.626-7.626-17.708-13.39-29.826-17.179l-457.811 457.812c3.789 12.118 9.553 22.2 17.179 29.826 11.071 11.071 25.172 16.636 42.068 16.636 5.509 0 11.317-.592 17.411-1.778 20.383-3.964 43.758-14.447 71.461-32.044 46.226-29.364 104.725-79.313 173.872-148.461 69.148-69.147 119.097-127.647 148.461-173.873 17.598-27.701 28.08-51.076 32.044-71.46z" fill="#ebaa5f"/></g></svg>